<svg width="257" height="257" viewBox="0 0 257 257" fill="none" xmlns="http://www.w3.org/2000/svg">
  <rect width="257" height="257" rx="84" fill="white" />
  <path
    d="M58 93C58 87 62 83 68 83H92L154 161H131L58 93Z"
    fill="#F162F2"
  />
  <path
    d="M88 70C88 64 92 60 98 60H122L170 121H148L88 70Z"
    fill="#EC76F8"
  />
  <path
    d="M102 66C99 62 102 56 107 56H137C148 56 158 61 165 69L174 80L160 97L102 66Z"
    fill="#F198FC"
  />
  <path
    d="M171 61H196C202 61 206 67 202 73L149 142C141 153 128 159 114 159H99L154 82C158 69 170 61 171 61Z"
    fill="#2A7CF2"
  />
  <path
    d="M75 198C69 198 65 191 69 186L123 119H149L102 186C98 193 90 198 82 198H75Z"
    fill="#22B9E8"
  />
  <path
    d="M118 109L145 109L174 145L146 183H119L90 145L118 109Z"
    fill="#4537D0"
    fill-opacity="0.9"
  />
  <path
    d="M149 171L178 133L204 186C208 191 204 198 198 198H169C160 198 152 194 147 186L130 169L149 171Z"
    fill="#24C7D8"
  />
</svg>
